:SAMPLES-PER-SECOND 30
:FULLY-SPECIFIED
:DEGREES
649
root  -48.3871 34.9518 2.29228 -167.196 73.5983 -175.136
RightUpLeg  -5.73728 -10.3126 0.287493
RightLeg  3.37374 -0.759202 0.00492339
RightFoot  5.54198 0.020812 0.0904083
RightToes  -26.7897 -0.122451 -0.228455
Spine  -1.49587 -0.0598405 0.966891
Spine1  -2.9846 0.0596577 2.63079
HEad  -59.9417 -2.90921 6.92092
LeftShoulder1  -1.94126e-019 -3.10601e-018 -2.51263e-017
LeftArm  9.44091 13.2196 -84.4645
LeftForeArm  30.5868 -35.9794 -6.30582
LeftHand  -0.430257 -2.15571 6.81862
RightShoulder  -4.96962e-017 0 -2.36833e-017
RightArm  -3.07115 -13.9334 77.3767
RightForeArm  55.8262 30.779 3.73655
RightHand  -0.654083 1.7847 -10.7404
LeftUpLeg  -5.10464 2.82262 6.84683
LeftLeg  1.34572 11.4645 -0.464755
LeftFoot  10.3011 -0.18809 2.24804
LeftToes  -28.629 1.83942e-006 5.51297e-008
650
root  -48.3364 34.9299 2.4363 -166.792 72.9263 -175.112
RightUpLeg  -6.11131 -10.4712 0.699275
RightLeg  3.56239 -1.23018 0.00348189
RightFoot  5.15031 0.0213857 0.054469
RightToes  -26.5348 -0.120801 -0.225996
Spine  -1.47829 0.0546563 1.03902
Spine1  -2.95757 0.272413 2.77407
HEad  -60.0553 -2.45653 6.8947
LeftShoulder1  -1.94126e-019 -3.10601e-018 -2.51263e-017
LeftArm  7.69147 14.7856 -85.1661
LeftForeArm  31.5589 -31.6312 -5.14997
LeftHand  -0.440018 -2.31288 6.83802
RightShoulder  -4.96962e-017 0 -2.36833e-017
RightArm  -5.06114 -14.9024 77.2583
RightForeArm  56.4499 26.5959 2.82925
RightHand  -0.650549 1.75462 -10.7261
LeftUpLeg  -5.97579 2.71452 7.19214
LeftLeg  2.03586 10.9491 -0.312991
LeftFoot  10.1551 -0.173966 2.11926
LeftToes  -29.0548 1.83942e-006 5.51297e-008
651
root  -48.3128 34.9117 2.55556 -166.984 71.7839 -175.626
RightUpLeg  -6.50722 -11.1699 0.955849
RightLeg  3.98533 -1.6446 -0.00768208
RightFoot  4.64724 0.0204423 0.0324757
RightToes  -26.1269 -0.119632 -0.224166
Spine  -1.42258 0.0601371 1.10915
Spine1  -2.85655 0.266145 2.91299
HEad  -60.0624 -1.76672 6.78823
LeftShoulder1  -1.94126e-019 -3.10601e-018 -2.51263e-017
LeftArm  5.02896 16.1479 -85.7688
LeftForeArm  32.8086 -26.6065 -4.12787
LeftHand  -0.436514 -2.28468 6.80807
RightShoulder  -4.96962e-017 0 -2.36833e-017
RightArm  -8.14838 -15.511 77.0318
RightForeArm  56.512 20.9272 1.71991
RightHand  -0.625562 1.2453 -11.0724
LeftUpLeg  -7.09788 1.68633 7.4043
LeftLeg  3.12888 10.8646 -0.104657
LeftFoot  9.87237 -0.162661 2.04476
LeftToes  -29.0462 1.83942e-006 5.51297e-008
652
root  -48.2519 34.853 2.67602 -167.132 70.5671 -175.943
RightUpLeg  -7.10627 -11.7618 1.25566
RightLeg  5.24114 -2.24165 -0.0597511
RightFoot  3.69805 0.0165147 0.0247822
RightToes  -25.9154 -0.118338 -0.222761
Spine  -1.3047 0.154371 1.22047
Spine1  -2.63538 0.492851 3.06692
HEad  -59.774 -0.627204 6.9951
LeftShoulder1  -1.94126e-019 -3.10601e-018 -2.51263e-017
LeftArm  0.480047 17.5251 -86.136
LeftForeArm  35.0313 -21.6872 -3.56624
LeftHand  -0.457311 -2.09265 7.29141
RightShoulder  -4.96962e-017 0 -2.36833e-017
RightArm  -12.6752 -16.434 76.5386
RightForeArm  57.0173 16.0415 1.00693
RightHand  -0.575032 0.476178 -11.4586
LeftUpLeg  -8.45082 0.698257 7.71558
LeftLeg  5.04214 10.6514 0.250779
LeftFoot  9.1506 -0.136194 1.86334
LeftToes  -29.1946 1.83942e-006 5.51297e-008
653
root  -48.1977 34.7805 2.79493 -167.226 69.1381 -176.231
RightUpLeg  -7.82638 -12.5322 1.58446
RightLeg  6.70982 -2.83927 -0.148687
RightFoot  2.56435 0.0111684 0.0403806
RightToes  -25.3061 -0.116974 -0.221286
Spine  -1.2092 0.18938 1.36496
Spine1  -2.45908 0.569713 3.28456
HEad  -59.2602 1.3268 7.35523
LeftShoulder1  -1.94126e-019 -3.10601e-018 -2.51263e-017
LeftArm  -4.4285 19.0585 -86.054
LeftForeArm  36.7557 -17.5414 -3.05527
LeftHand  -0.467993 -1.78318 7.75541
RightShoulder  -4.96962e-017 0 -2.36833e-017
RightArm  -19.7004 -17.782 75.5728
RightForeArm  60.0594 12.846 1.37451
RightHand  -0.515276 -0.385891 -11.9638
LeftUpLeg  -10.1795 -0.414724 8.05451
LeftLeg  7.50301 10.3907 0.689132
LeftFoot  8.25691 -0.106938 1.643
LeftToes  -29.6339 1.83942e-006 5.51297e-008
654
root  -48.1386 34.7105 2.92009 -167.161 67.4856 -176.319
RightUpLeg  -8.39732 -13.5084 2.0245
RightLeg  7.94282 -3.46034 -0.256089
RightFoot  1.60619 0.00648861 0.0630412
RightToes  -24.9904 -0.115597 -0.219804
Spine  -1.13396 0.110059 1.55001
Spine1  -2.31696 0.371635 3.61589
HEad  -58.4955 3.91981 8.01918
LeftShoulder1  -1.94126e-019 -3.10601e-018 -2.51263e-017
LeftArm  -8.15936 20.7209 -85.3783
LeftForeArm  37.207 -14.7144 -2.61376
LeftHand  -0.488797 -1.05009 8.95308
RightShoulder  -4.96962e-017 0 -2.36833e-017
RightArm  -26.3252 -19.252 74.3787
RightForeArm  63.3788 10.1028 1.53152
RightHand  -0.450463 -1.20532 -12.4199
LeftUpLeg  -12.0597 -1.71592 8.54191
LeftLeg  10.2253 9.93488 1.1323
LeftFoot  7.08691 -0.0738526 1.35413
LeftToes  -28.9743 1.83942e-006 5.51297e-008
655
root  -48.0825 34.6486 3.02565 -167.297 65.5555 -176.558
RightUpLeg  -8.77212 -14.9354 2.39381
RightLeg  8.92591 -3.89597 -0.355679
RightFoot  0.76697 0.00271729 0.0974336
RightToes  -24.689 -0.114263 -0.218379
Spine  -1.08642 -0.033709 1.77016
Spine1  -2.22811 0.0119149 4.05269
HEad  -57.5766 7.14451 8.36606
LeftShoulder1  -1.94126e-019 -3.10601e-018 -2.51263e-017
LeftArm  -10.7713 22.476 -84.4415
LeftForeArm  37.615 -12.6656 -2.23908
LeftHand  -0.51685 -1.20632 9.24722
RightShoulder  -4.96962e-017 0 -2.36833e-017
RightArm  -30.9414 -21.1492 73.0276
RightForeArm  65.5636 8.32573 1.39226
RightHand  -0.389073 -1.87893 -12.6904
LeftUpLeg  -14.2266 -2.94962 8.92306
LeftLeg  13.305 9.38907 1.58257
LeftFoot  6.37828 -0.0551968 1.15215
LeftToes  -30.1256 1.83942e-006 5.51297e-008
656
root  -48.0302 34.5702 3.09739 -167.48 63.2637 -176.662
RightUpLeg  -8.8872 -17.3996 2.7204
RightLeg  9.81276 -3.59606 -0.384513
RightFoot  -0.120752 -0.000832737 0.141497
RightToes  -24.934 -0.113028 -0.217074
Spine  -0.978868 -0.217552 2.05004
Spine1  -2.02523 -0.451409 4.63101
HEad  -56.9203 10.5102 8.61224
LeftShoulder1  -1.94126e-019 -3.10601e-018 -2.51263e-017
LeftArm  -12.4298 24.1546 -83.3154
LeftForeArm  37.2043 -12.3629 -2.18415
LeftHand  -0.513496 -1.32226 9.03853
RightShoulder  -4.96962e-017 0 -2.36833e-017
RightArm  -33.0554 -23.4559 71.6248
RightForeArm  66.2557 7.70886 1.2977
RightHand  -0.361162 -2.15252 -12.7264
LeftUpLeg  -16.7225 -5.00427 9.42807
LeftLeg  17.3493 8.93278 2.15992
LeftFoot  4.81926 -0.0284288 0.837107
LeftToes  -28.3343 1.83942e-006 5.51297e-008
